<svg width="1117" height="1117" viewBox="0 0 1117 1117" fill="none" xmlns="http://www.w3.org/2000/svg">
<path d="M845.49 132.064C728.061 149.221 634.513 427.376 633.232 769.351C633.462 773.319 636.66 776.463 640.571 776.463H713.745C735.198 776.463 752.589 794.372 752.589 816.463V978.662C752.589 982.844 755.881 986.233 759.942 986.233H849.088C853.149 986.233 856.44 982.844 856.44 978.662L857.002 138.796C857.002 132.484 850.684 131.305 845.49 132.064Z" fill="black"/>
<path d="M338.747 664.917C354.143 672.764 365.674 687.915 365.674 705.604V978.662C365.674 982.844 368.966 986.233 373.026 986.233H464.011C468.072 986.233 471.363 982.844 471.363 978.662V705.919C471.363 688.173 482.965 672.989 498.435 665.171C541.943 643.183 572.39 603.257 577.145 554.681C577.145 133.994 565.235 131.646 552.781 131.646C541.312 131.646 526.347 132.087 524.05 462.092C523.868 488.169 489.639 489.462 489.496 462.527C487.749 133.637 476.255 131.646 464.98 131.646C453.544 131.646 438.573 132.099 436.647 476.45C436.507 501.389 401.454 503.337 401.334 476.002C399.831 133.691 388.179 131.646 376.752 131.646C365.406 131.646 350.579 132.092 348.467 468.435C348.467 489.156 313.188 489.92 313.038 461.931C311.28 133.635 299.793 131.646 288.524 131.646C276.492 131.646 260.543 132.148 259.999 533.279C261.418 589.776 286.511 638.292 338.747 664.917Z" fill="black"/>
</svg>
