<svg width="3021" height="1459" viewBox="0 0 3021 1459" fill="none" xmlns="http://www.w3.org/2000/svg">
<path d="M867.796 935.663V502.092H959.464V693.261H965.18L1121.21 502.092H1231.08L1070.19 696.225L1232.99 935.663H1123.32L1004.56 757.407L959.464 812.451V935.663H867.796ZM1340.05 941.802C1309 941.802 1283.24 933.687 1262.77 917.456C1242.31 901.225 1232.08 877.02 1232.08 844.841C1232.08 820.566 1237.79 801.512 1249.22 787.681C1260.66 773.85 1275.62 763.759 1294.11 757.407C1312.74 750.915 1332.78 746.681 1354.23 744.705C1382.46 741.882 1402.64 738.919 1414.78 735.814C1426.91 732.709 1432.98 725.934 1432.98 715.49V714.22C1432.98 700.812 1428.75 690.438 1420.28 683.099C1411.95 675.76 1400.1 672.09 1384.71 672.09C1368.48 672.09 1355.57 675.619 1345.97 682.676C1336.38 689.732 1330.02 698.695 1326.92 709.562L1243.51 702.788C1249.72 673.149 1265.1 649.65 1289.66 632.29C1314.36 614.93 1346.18 606.25 1385.14 606.25C1409.27 606.25 1431.85 610.061 1452.88 617.682C1473.91 625.304 1490.85 637.23 1503.69 653.46C1516.68 669.55 1523.17 690.509 1523.17 716.337V935.663H1437.64V890.57H1435.1C1427.2 905.671 1415.34 918.021 1399.53 927.618C1383.87 937.074 1364.04 941.802 1340.05 941.802ZM1365.87 879.561C1385.63 879.561 1401.86 873.845 1414.57 862.413C1427.27 850.84 1433.62 836.514 1433.62 819.437V784.929C1430.09 787.328 1424.59 789.445 1417.11 791.28C1409.77 793.115 1401.86 794.738 1393.39 796.149C1385.07 797.42 1377.59 798.549 1370.95 799.537C1355.15 801.795 1342.37 806.241 1332.64 812.874C1323.04 819.507 1318.24 829.175 1318.24 841.877C1318.24 854.297 1322.69 863.683 1331.58 870.034C1340.61 876.385 1352.04 879.561 1365.87 879.561ZM1653.52 747.669V935.663H1563.33V610.484H1649.28V667.856H1653.09C1660.43 648.944 1672.5 633.984 1689.29 622.975C1706.23 611.825 1726.77 606.25 1750.9 606.25C1784.77 606.25 1811.94 617.188 1832.41 639.065C1852.87 660.8 1863.1 690.65 1863.1 728.616V935.663H1772.92V744.705C1773.06 724.805 1767.98 709.28 1757.67 698.13C1747.37 686.839 1733.19 681.194 1715.12 681.194C1696.92 681.194 1682.1 687.051 1670.66 698.765C1659.37 710.338 1653.66 726.64 1653.52 747.669ZM1904.38 1057.6V610.484H1993.29V665.104H1997.31C2001.41 656.213 2007.19 647.25 2014.67 638.218C2022.15 629.185 2032.03 621.634 2044.31 615.565C2056.59 609.355 2071.76 606.25 2089.83 606.25C2113.68 606.25 2135.56 612.46 2155.46 624.88C2175.36 637.159 2191.31 655.719 2203.3 680.559C2215.44 705.257 2221.51 736.237 2221.51 773.497C2221.51 809.769 2215.65 840.396 2203.94 865.377C2192.22 890.217 2176.42 909.058 2156.52 921.902C2136.62 934.604 2114.32 940.955 2089.62 940.955C2072.12 940.955 2057.23 938.062 2044.95 932.275C2032.81 926.489 2022.86 919.22 2015.1 910.47C2007.48 901.578 2001.55 892.616 1997.31 883.583H1994.56V1057.6H1904.38ZM1992.66 773.074C1992.66 802.006 1998.58 825.294 2010.44 842.936C2022.44 860.437 2039.3 869.187 2061.04 869.187C2083.2 869.187 2100.13 860.296 2111.85 842.513C2123.56 824.588 2129.42 801.442 2129.42 773.074C2129.42 744.846 2123.56 721.982 2111.85 704.481C2100.27 686.839 2083.34 678.018 2061.04 678.018C2039.16 678.018 2022.29 686.627 2010.44 703.846C1998.58 720.924 1992.66 743.999 1992.66 773.074ZM2342.01 502.092V935.663H2251.82V502.092H2342.01ZM2477.17 941.802C2446.12 941.802 2420.37 933.687 2399.9 917.456C2379.44 901.225 2369.2 877.02 2369.2 844.841C2369.2 820.566 2374.92 801.512 2386.35 787.681C2397.78 773.85 2412.74 763.759 2431.23 757.407C2449.86 750.915 2469.91 746.681 2491.36 744.705C2519.59 741.882 2539.77 738.919 2551.91 735.814C2564.04 732.709 2570.11 725.934 2570.11 715.49V714.22C2570.11 700.812 2565.88 690.438 2557.41 683.099C2549.08 675.76 2537.23 672.09 2521.84 672.09C2505.61 672.09 2492.7 675.619 2483.1 682.676C2473.5 689.732 2467.15 698.695 2464.05 709.562L2380.64 702.788C2386.85 673.149 2402.23 649.65 2426.79 632.29C2451.49 614.93 2483.31 606.25 2522.27 606.25C2546.4 606.25 2568.98 610.061 2590.01 617.682C2611.04 625.304 2627.98 637.23 2640.82 653.46C2653.81 669.55 2660.3 690.509 2660.3 716.337V935.663H2574.77V890.57H2572.23C2564.33 905.671 2552.47 918.021 2536.66 927.618C2521 937.074 2501.17 941.802 2477.17 941.802ZM2503 879.561C2522.76 879.561 2538.99 873.845 2551.69 862.413C2564.4 850.84 2570.75 836.514 2570.75 819.437V784.929C2567.22 787.328 2561.71 789.445 2554.23 791.28C2546.9 793.115 2538.99 794.738 2530.52 796.149C2522.2 797.42 2514.72 798.549 2508.08 799.537C2492.28 801.795 2479.5 806.241 2469.76 812.874C2460.17 819.507 2455.37 829.175 2455.37 841.877C2455.37 854.297 2459.81 863.683 2468.71 870.034C2477.74 876.385 2489.17 879.561 2503 879.561Z" fill="black"/>
<path d="M684.638 457.123C612.685 467.636 555.365 638.072 554.58 847.612C554.722 850.043 556.681 851.97 559.077 851.97H603.914C617.059 851.97 627.715 862.943 627.715 876.479V975.864C627.715 978.426 629.732 980.503 632.22 980.503H686.843C689.331 980.503 691.348 978.426 691.348 975.864L691.692 461.248C691.692 457.381 687.821 456.658 684.638 457.123Z" fill="black"/>
<path d="M374.14 783.621C383.573 788.43 390.639 797.713 390.639 808.552V975.864C390.639 978.426 392.655 980.503 395.144 980.503H450.893C453.381 980.503 455.398 978.426 455.398 975.864V808.745C455.398 797.871 462.506 788.567 471.986 783.777C498.645 770.304 517.3 745.84 520.214 716.076C520.214 458.306 512.916 456.868 505.285 456.868C498.258 456.868 489.088 457.137 487.681 659.343C487.57 675.321 466.596 676.114 466.509 659.61C465.438 458.088 458.395 456.868 451.487 456.868C444.48 456.868 435.306 457.145 434.126 668.141C434.041 683.422 412.562 684.615 412.489 667.867C411.568 458.121 404.428 456.868 397.426 456.868C390.474 456.868 381.389 457.141 380.095 663.23C380.095 675.926 358.478 676.394 358.386 659.245C357.309 458.086 350.271 456.868 343.366 456.868C335.993 456.868 326.221 457.175 325.888 702.962C326.757 737.58 342.133 767.307 374.14 783.621Z" fill="black"/>
</svg>
